<mxfile host="app.diagrams.net" modified="2022-12-08T12:01:58.525Z" agent="5.0 (Windows NT 10.0; Win64; x64) AppleWebKit/537.36 (KHTML, like Gecko) Chrome/108.0.0.0 Safari/537.36" etag="DVl4tgMbIX6tKftSkrCC" version="20.6.0" type="github">
  <diagram id="Vcgb1b0wzYb2IgKRUXfo" name="Страница 1">
    <mxGraphModel dx="1422" dy="762" grid="1" gridSize="10" guides="1" tooltips="1" connect="1" arrows="1" fold="1" page="1" pageScale="1" pageWidth="827" pageHeight="1169" math="0" shadow="0">
      <root>
        <mxCell id="0" />
        <mxCell id="1" parent="0" />
        <mxCell id="lPIwgzD2hlyKlDtllV1P-38" style="edgeStyle=orthogonalEdgeStyle;rounded=0;orthogonalLoop=1;jettySize=auto;html=1;exitX=0.5;exitY=0.5;exitDx=0;exitDy=0;exitPerimeter=0;entryX=0;entryY=0.5;entryDx=0;entryDy=0;endArrow=classic;endFill=1;" parent="1" source="lPIwgzD2hlyKlDtllV1P-39" target="lPIwgzD2hlyKlDtllV1P-43" edge="1">
          <mxGeometry relative="1" as="geometry" />
        </mxCell>
        <mxCell id="lPIwgzD2hlyKlDtllV1P-39" value="Клиент" style="shape=umlActor;verticalLabelPosition=bottom;verticalAlign=top;html=1;outlineConnect=0;" parent="1" vertex="1">
          <mxGeometry x="240" y="880" width="50" height="80" as="geometry" />
        </mxCell>
        <mxCell id="lPIwgzD2hlyKlDtllV1P-40" style="edgeStyle=orthogonalEdgeStyle;rounded=0;orthogonalLoop=1;jettySize=auto;html=1;exitX=1;exitY=0.5;exitDx=0;exitDy=0;entryX=0;entryY=0.5;entryDx=0;entryDy=0;dashed=1;" parent="1" source="lPIwgzD2hlyKlDtllV1P-41" target="lPIwgzD2hlyKlDtllV1P-45" edge="1">
          <mxGeometry relative="1" as="geometry" />
        </mxCell>
        <mxCell id="lPIwgzD2hlyKlDtllV1P-41" value="Регистрация&amp;nbsp;" style="ellipse;whiteSpace=wrap;html=1;" parent="1" vertex="1">
          <mxGeometry x="530" y="885" width="105" height="70" as="geometry" />
        </mxCell>
        <mxCell id="lPIwgzD2hlyKlDtllV1P-42" style="edgeStyle=orthogonalEdgeStyle;rounded=0;orthogonalLoop=1;jettySize=auto;html=1;exitX=1;exitY=0.5;exitDx=0;exitDy=0;entryX=0;entryY=0.5;entryDx=0;entryDy=0;dashed=1;" parent="1" source="lPIwgzD2hlyKlDtllV1P-43" target="lPIwgzD2hlyKlDtllV1P-41" edge="1">
          <mxGeometry relative="1" as="geometry" />
        </mxCell>
        <mxCell id="lPIwgzD2hlyKlDtllV1P-43" value="Установка&amp;nbsp;&lt;br&gt;&lt;font&gt;приложения.&lt;/font&gt;" style="rounded=0;whiteSpace=wrap;html=1;" parent="1" vertex="1">
          <mxGeometry x="380" y="895" width="100" height="50" as="geometry" />
        </mxCell>
        <mxCell id="lPIwgzD2hlyKlDtllV1P-44" value="" style="edgeStyle=orthogonalEdgeStyle;rounded=0;orthogonalLoop=1;jettySize=auto;html=1;dashed=1;startArrow=none;startFill=0;endArrow=classicThin;endFill=1;" parent="1" source="lPIwgzD2hlyKlDtllV1P-45" target="lPIwgzD2hlyKlDtllV1P-50" edge="1">
          <mxGeometry relative="1" as="geometry" />
        </mxCell>
        <mxCell id="lPIwgzD2hlyKlDtllV1P-45" value="Авторизация&amp;nbsp;" style="ellipse;whiteSpace=wrap;html=1;" parent="1" vertex="1">
          <mxGeometry x="674" y="890" width="106" height="70" as="geometry" />
        </mxCell>
        <mxCell id="lPIwgzD2hlyKlDtllV1P-46" value="&amp;lt;in&amp;gt;" style="text;html=1;strokeColor=none;fillColor=none;align=center;verticalAlign=middle;whiteSpace=wrap;rounded=0;fontSize=14;" parent="1" vertex="1">
          <mxGeometry x="470" y="895" width="60" height="30" as="geometry" />
        </mxCell>
        <mxCell id="lPIwgzD2hlyKlDtllV1P-47" value="&amp;lt;in&amp;gt;" style="text;html=1;strokeColor=none;fillColor=none;align=center;verticalAlign=middle;whiteSpace=wrap;rounded=0;fontSize=14;" parent="1" vertex="1">
          <mxGeometry x="630" y="895" width="60" height="30" as="geometry" />
        </mxCell>
        <mxCell id="lPIwgzD2hlyKlDtllV1P-48" value="&amp;lt;in&amp;gt;" style="text;html=1;strokeColor=none;fillColor=none;align=center;verticalAlign=middle;whiteSpace=wrap;rounded=0;fontSize=14;rotation=-90;" parent="1" vertex="1">
          <mxGeometry x="674" y="970" width="60" height="30" as="geometry" />
        </mxCell>
        <mxCell id="lPIwgzD2hlyKlDtllV1P-49" value="" style="edgeStyle=orthogonalEdgeStyle;rounded=0;orthogonalLoop=1;jettySize=auto;html=1;dashed=1;startArrow=none;startFill=0;endArrow=classicThin;endFill=1;" parent="1" source="lPIwgzD2hlyKlDtllV1P-50" target="lPIwgzD2hlyKlDtllV1P-53" edge="1">
          <mxGeometry relative="1" as="geometry" />
        </mxCell>
        <mxCell id="lPIwgzD2hlyKlDtllV1P-50" value="Просмотр&lt;br&gt;коталога" style="ellipse;whiteSpace=wrap;html=1;" parent="1" vertex="1">
          <mxGeometry x="674" y="1010" width="106" height="70" as="geometry" />
        </mxCell>
        <mxCell id="lPIwgzD2hlyKlDtllV1P-51" style="edgeStyle=orthogonalEdgeStyle;rounded=0;orthogonalLoop=1;jettySize=auto;html=1;entryX=0;entryY=0.5;entryDx=0;entryDy=0;dashed=1;startArrow=none;startFill=0;endArrow=classicThin;endFill=1;" parent="1" source="lPIwgzD2hlyKlDtllV1P-53" target="lPIwgzD2hlyKlDtllV1P-56" edge="1">
          <mxGeometry relative="1" as="geometry" />
        </mxCell>
        <mxCell id="lPIwgzD2hlyKlDtllV1P-52" style="edgeStyle=orthogonalEdgeStyle;rounded=0;orthogonalLoop=1;jettySize=auto;html=1;entryX=0;entryY=0.5;entryDx=0;entryDy=0;dashed=1;startArrow=none;startFill=0;endArrow=classicThin;endFill=1;" parent="1" source="lPIwgzD2hlyKlDtllV1P-53" target="lPIwgzD2hlyKlDtllV1P-55" edge="1">
          <mxGeometry relative="1" as="geometry" />
        </mxCell>
        <mxCell id="lPIwgzD2hlyKlDtllV1P-53" value="Выбор товара&amp;nbsp;" style="ellipse;whiteSpace=wrap;html=1;" parent="1" vertex="1">
          <mxGeometry x="820" y="1010" width="106" height="70" as="geometry" />
        </mxCell>
        <mxCell id="lPIwgzD2hlyKlDtllV1P-54" style="edgeStyle=orthogonalEdgeStyle;rounded=0;orthogonalLoop=1;jettySize=auto;html=1;entryX=0.466;entryY=1.025;entryDx=0;entryDy=0;entryPerimeter=0;dashed=1;startArrow=none;startFill=0;endArrow=classicThin;endFill=1;" parent="1" source="lPIwgzD2hlyKlDtllV1P-55" target="lPIwgzD2hlyKlDtllV1P-59" edge="1">
          <mxGeometry relative="1" as="geometry" />
        </mxCell>
        <mxCell id="lPIwgzD2hlyKlDtllV1P-55" value="Купить товар" style="ellipse;whiteSpace=wrap;html=1;" parent="1" vertex="1">
          <mxGeometry x="916" y="940" width="106" height="70" as="geometry" />
        </mxCell>
        <mxCell id="lPIwgzD2hlyKlDtllV1P-56" value="Не купить&lt;br&gt;товар" style="ellipse;whiteSpace=wrap;html=1;" parent="1" vertex="1">
          <mxGeometry x="916" y="1080" width="106" height="70" as="geometry" />
        </mxCell>
        <mxCell id="lPIwgzD2hlyKlDtllV1P-57" style="edgeStyle=orthogonalEdgeStyle;rounded=0;orthogonalLoop=1;jettySize=auto;html=1;entryX=0;entryY=0.5;entryDx=0;entryDy=0;dashed=1;" parent="1" source="lPIwgzD2hlyKlDtllV1P-59" target="lPIwgzD2hlyKlDtllV1P-66" edge="1">
          <mxGeometry relative="1" as="geometry">
            <mxPoint x="741.000000000005" y="845" as="targetPoint" />
          </mxGeometry>
        </mxCell>
        <mxCell id="lPIwgzD2hlyKlDtllV1P-58" value="" style="edgeStyle=orthogonalEdgeStyle;rounded=0;orthogonalLoop=1;jettySize=auto;html=1;dashed=1;startArrow=none;startFill=0;endArrow=classicThin;endFill=1;" parent="1" source="lPIwgzD2hlyKlDtllV1P-59" target="lPIwgzD2hlyKlDtllV1P-61" edge="1">
          <mxGeometry relative="1" as="geometry" />
        </mxCell>
        <mxCell id="lPIwgzD2hlyKlDtllV1P-59" value="Оплата" style="rounded=0;whiteSpace=wrap;html=1;" parent="1" vertex="1">
          <mxGeometry x="922" y="820" width="100" height="50" as="geometry" />
        </mxCell>
        <mxCell id="lPIwgzD2hlyKlDtllV1P-60" style="edgeStyle=orthogonalEdgeStyle;rounded=0;orthogonalLoop=1;jettySize=auto;html=1;entryX=1;entryY=0.5;entryDx=0;entryDy=0;dashed=1;startArrow=none;startFill=0;endArrow=classicThin;endFill=1;" parent="1" source="lPIwgzD2hlyKlDtllV1P-61" target="lPIwgzD2hlyKlDtllV1P-66" edge="1">
          <mxGeometry relative="1" as="geometry">
            <Array as="points">
              <mxPoint x="1130" y="715" />
            </Array>
          </mxGeometry>
        </mxCell>
        <mxCell id="lPIwgzD2hlyKlDtllV1P-61" value="Карта&lt;br&gt;привязана" style="rounded=0;whiteSpace=wrap;html=1;" parent="1" vertex="1">
          <mxGeometry x="1080" y="820" width="100" height="50" as="geometry" />
        </mxCell>
        <mxCell id="lPIwgzD2hlyKlDtllV1P-62" style="edgeStyle=orthogonalEdgeStyle;rounded=0;orthogonalLoop=1;jettySize=auto;html=1;dashed=1;startArrow=none;startFill=0;endArrow=none;endFill=0;" parent="1" source="lPIwgzD2hlyKlDtllV1P-63" edge="1">
          <mxGeometry relative="1" as="geometry">
            <mxPoint x="850" y="840" as="targetPoint" />
          </mxGeometry>
        </mxCell>
        <mxCell id="lPIwgzD2hlyKlDtllV1P-63" value="Карта не&lt;br&gt;привязанна" style="rounded=0;whiteSpace=wrap;html=1;" parent="1" vertex="1">
          <mxGeometry x="800" y="870" width="100" height="50" as="geometry" />
        </mxCell>
        <mxCell id="lPIwgzD2hlyKlDtllV1P-66" value="Купить товар" style="ellipse;whiteSpace=wrap;html=1;" parent="1" vertex="1">
          <mxGeometry x="777" y="680" width="106" height="70" as="geometry" />
        </mxCell>
        <mxCell id="lPIwgzD2hlyKlDtllV1P-76" value="" style="edgeStyle=orthogonalEdgeStyle;rounded=0;orthogonalLoop=1;jettySize=auto;html=1;" parent="1" source="lPIwgzD2hlyKlDtllV1P-68" target="lPIwgzD2hlyKlDtllV1P-74" edge="1">
          <mxGeometry relative="1" as="geometry" />
        </mxCell>
        <mxCell id="lPIwgzD2hlyKlDtllV1P-82" style="edgeStyle=orthogonalEdgeStyle;rounded=0;orthogonalLoop=1;jettySize=auto;html=1;dashed=1;startArrow=none;" parent="1" source="lPIwgzD2hlyKlDtllV1P-104" target="lPIwgzD2hlyKlDtllV1P-71" edge="1">
          <mxGeometry relative="1" as="geometry">
            <Array as="points">
              <mxPoint x="720" y="1330" />
            </Array>
          </mxGeometry>
        </mxCell>
        <mxCell id="lPIwgzD2hlyKlDtllV1P-84" style="edgeStyle=orthogonalEdgeStyle;rounded=0;orthogonalLoop=1;jettySize=auto;html=1;dashed=1;" parent="1" source="lPIwgzD2hlyKlDtllV1P-68" target="lPIwgzD2hlyKlDtllV1P-72" edge="1">
          <mxGeometry relative="1" as="geometry">
            <Array as="points">
              <mxPoint x="1585" y="1330" />
              <mxPoint x="990" y="1330" />
            </Array>
          </mxGeometry>
        </mxCell>
        <mxCell id="lPIwgzD2hlyKlDtllV1P-68" value="Рабочий&lt;br&gt;Пункта&lt;br&gt;выдачи" style="shape=umlActor;verticalLabelPosition=bottom;verticalAlign=top;html=1;outlineConnect=0;" parent="1" vertex="1">
          <mxGeometry x="1560" y="1220" width="50" height="80" as="geometry" />
        </mxCell>
        <mxCell id="lPIwgzD2hlyKlDtllV1P-88" style="edgeStyle=orthogonalEdgeStyle;rounded=0;orthogonalLoop=1;jettySize=auto;html=1;entryX=0.689;entryY=1.022;entryDx=0;entryDy=0;entryPerimeter=0;dashed=1;" parent="1" source="lPIwgzD2hlyKlDtllV1P-69" target="lPIwgzD2hlyKlDtllV1P-72" edge="1">
          <mxGeometry relative="1" as="geometry" />
        </mxCell>
        <mxCell id="lPIwgzD2hlyKlDtllV1P-89" style="edgeStyle=orthogonalEdgeStyle;rounded=0;orthogonalLoop=1;jettySize=auto;html=1;entryX=0.566;entryY=1;entryDx=0;entryDy=0;entryPerimeter=0;dashed=1;" parent="1" source="lPIwgzD2hlyKlDtllV1P-69" target="lPIwgzD2hlyKlDtllV1P-71" edge="1">
          <mxGeometry relative="1" as="geometry" />
        </mxCell>
        <mxCell id="lPIwgzD2hlyKlDtllV1P-69" value="Рабочий&amp;nbsp;&lt;br&gt;СЦ" style="shape=umlActor;verticalLabelPosition=bottom;verticalAlign=top;html=1;outlineConnect=0;" parent="1" vertex="1">
          <mxGeometry x="1550" y="1640" width="50" height="80" as="geometry" />
        </mxCell>
        <mxCell id="lPIwgzD2hlyKlDtllV1P-86" style="edgeStyle=orthogonalEdgeStyle;rounded=0;orthogonalLoop=1;jettySize=auto;html=1;entryX=0.5;entryY=1;entryDx=0;entryDy=0;dashed=1;" parent="1" source="lPIwgzD2hlyKlDtllV1P-70" target="lPIwgzD2hlyKlDtllV1P-72" edge="1">
          <mxGeometry relative="1" as="geometry" />
        </mxCell>
        <mxCell id="lPIwgzD2hlyKlDtllV1P-90" style="edgeStyle=orthogonalEdgeStyle;rounded=0;orthogonalLoop=1;jettySize=auto;html=1;entryX=0.396;entryY=1.043;entryDx=0;entryDy=0;entryPerimeter=0;dashed=1;" parent="1" source="lPIwgzD2hlyKlDtllV1P-70" target="lPIwgzD2hlyKlDtllV1P-71" edge="1">
          <mxGeometry relative="1" as="geometry" />
        </mxCell>
        <mxCell id="lPIwgzD2hlyKlDtllV1P-93" style="edgeStyle=orthogonalEdgeStyle;rounded=0;orthogonalLoop=1;jettySize=auto;html=1;entryX=0;entryY=0.5;entryDx=0;entryDy=0;" parent="1" source="lPIwgzD2hlyKlDtllV1P-70" target="lPIwgzD2hlyKlDtllV1P-91" edge="1">
          <mxGeometry relative="1" as="geometry">
            <mxPoint x="275" y="1520" as="targetPoint" />
            <Array as="points">
              <mxPoint x="270" y="1505" />
            </Array>
          </mxGeometry>
        </mxCell>
        <mxCell id="lPIwgzD2hlyKlDtllV1P-70" value="Рабочий&lt;br&gt;склада" style="shape=umlActor;verticalLabelPosition=bottom;verticalAlign=top;html=1;outlineConnect=0;" parent="1" vertex="1">
          <mxGeometry x="250" y="1570" width="50" height="80" as="geometry" />
        </mxCell>
        <mxCell id="lPIwgzD2hlyKlDtllV1P-71" value="Отправка&lt;br&gt;данних" style="ellipse;whiteSpace=wrap;html=1;" parent="1" vertex="1">
          <mxGeometry x="650" y="1370" width="106" height="70" as="geometry" />
        </mxCell>
        <mxCell id="lPIwgzD2hlyKlDtllV1P-72" value="Сканирование&amp;nbsp;&lt;br&gt;штрихкода" style="ellipse;whiteSpace=wrap;html=1;" parent="1" vertex="1">
          <mxGeometry x="926" y="1370" width="106" height="70" as="geometry" />
        </mxCell>
        <mxCell id="lPIwgzD2hlyKlDtllV1P-74" value="Закрытие заказа" style="ellipse;whiteSpace=wrap;html=1;" parent="1" vertex="1">
          <mxGeometry x="1370" y="1225" width="106" height="70" as="geometry" />
        </mxCell>
        <mxCell id="lPIwgzD2hlyKlDtllV1P-91" value="Присвоение&lt;br&gt;внутреннего&amp;nbsp;&lt;br&gt;номер" style="ellipse;whiteSpace=wrap;html=1;" parent="1" vertex="1">
          <mxGeometry x="308" y="1470" width="106" height="70" as="geometry" />
        </mxCell>
        <mxCell id="lPIwgzD2hlyKlDtllV1P-94" value="&amp;lt;in&amp;gt;" style="text;html=1;strokeColor=none;fillColor=none;align=center;verticalAlign=middle;whiteSpace=wrap;rounded=0;fontSize=14;rotation=0;" parent="1" vertex="1">
          <mxGeometry x="767" y="1010" width="60" height="30" as="geometry" />
        </mxCell>
        <mxCell id="lPIwgzD2hlyKlDtllV1P-95" value="&amp;lt;ex&amp;gt;" style="text;html=1;strokeColor=none;fillColor=none;align=center;verticalAlign=middle;whiteSpace=wrap;rounded=0;fontSize=14;rotation=-90;" parent="1" vertex="1">
          <mxGeometry x="820" y="970" width="60" height="30" as="geometry" />
        </mxCell>
        <mxCell id="lPIwgzD2hlyKlDtllV1P-96" value="&amp;lt;ex&amp;gt;" style="text;html=1;strokeColor=none;fillColor=none;align=center;verticalAlign=middle;whiteSpace=wrap;rounded=0;fontSize=14;rotation=-90;" parent="1" vertex="1">
          <mxGeometry x="827" y="1090" width="60" height="30" as="geometry" />
        </mxCell>
        <mxCell id="lPIwgzD2hlyKlDtllV1P-97" value="&amp;lt;in&amp;gt;" style="text;html=1;strokeColor=none;fillColor=none;align=center;verticalAlign=middle;whiteSpace=wrap;rounded=0;fontSize=14;rotation=-90;" parent="1" vertex="1">
          <mxGeometry x="922" y="900" width="60" height="30" as="geometry" />
        </mxCell>
        <mxCell id="lPIwgzD2hlyKlDtllV1P-98" value="&amp;lt;in&amp;gt;" style="text;html=1;strokeColor=none;fillColor=none;align=center;verticalAlign=middle;whiteSpace=wrap;rounded=0;fontSize=14;rotation=0;" parent="1" vertex="1">
          <mxGeometry x="800" y="820" width="60" height="30" as="geometry" />
        </mxCell>
        <mxCell id="lPIwgzD2hlyKlDtllV1P-99" value="&amp;lt;in&amp;gt;" style="text;html=1;strokeColor=none;fillColor=none;align=center;verticalAlign=middle;whiteSpace=wrap;rounded=0;fontSize=14;rotation=-90;" parent="1" vertex="1">
          <mxGeometry x="1090" y="770" width="60" height="30" as="geometry" />
        </mxCell>
        <mxCell id="lPIwgzD2hlyKlDtllV1P-100" value="Ввод данных" style="ellipse;whiteSpace=wrap;html=1;" parent="1" vertex="1">
          <mxGeometry x="984" y="680" width="106" height="70" as="geometry" />
        </mxCell>
        <mxCell id="lPIwgzD2hlyKlDtllV1P-101" value="&amp;lt;in&amp;gt;" style="text;html=1;strokeColor=none;fillColor=none;align=center;verticalAlign=middle;whiteSpace=wrap;rounded=0;fontSize=14;rotation=0;" parent="1" vertex="1">
          <mxGeometry x="922" y="680" width="60" height="30" as="geometry" />
        </mxCell>
        <mxCell id="lPIwgzD2hlyKlDtllV1P-102" value="&amp;lt;in&amp;gt;" style="text;html=1;strokeColor=none;fillColor=none;align=center;verticalAlign=middle;whiteSpace=wrap;rounded=0;fontSize=14;rotation=0;" parent="1" vertex="1">
          <mxGeometry x="1022" y="820" width="60" height="30" as="geometry" />
        </mxCell>
        <mxCell id="lPIwgzD2hlyKlDtllV1P-104" value="&amp;lt;in&amp;gt;" style="text;html=1;strokeColor=none;fillColor=none;align=center;verticalAlign=middle;whiteSpace=wrap;rounded=0;fontSize=14;rotation=0;" parent="1" vertex="1">
          <mxGeometry x="887" y="1290" width="60" height="30" as="geometry" />
        </mxCell>
        <mxCell id="lPIwgzD2hlyKlDtllV1P-105" value="" style="edgeStyle=orthogonalEdgeStyle;rounded=0;orthogonalLoop=1;jettySize=auto;html=1;dashed=1;endArrow=none;" parent="1" source="lPIwgzD2hlyKlDtllV1P-68" target="lPIwgzD2hlyKlDtllV1P-104" edge="1">
          <mxGeometry relative="1" as="geometry">
            <mxPoint x="1585.0476190476188" y="1300" as="sourcePoint" />
            <mxPoint x="719.9999999999995" y="1371.8493197033667" as="targetPoint" />
            <Array as="points">
              <mxPoint x="1585" y="1330" />
            </Array>
          </mxGeometry>
        </mxCell>
        <mxCell id="lPIwgzD2hlyKlDtllV1P-106" value="&amp;lt;in&amp;gt;" style="text;html=1;strokeColor=none;fillColor=none;align=center;verticalAlign=middle;whiteSpace=wrap;rounded=0;fontSize=14;rotation=0;" parent="1" vertex="1">
          <mxGeometry x="1090" y="1650" width="60" height="30" as="geometry" />
        </mxCell>
        <mxCell id="lPIwgzD2hlyKlDtllV1P-107" value="&amp;lt;in&amp;gt;" style="text;html=1;strokeColor=none;fillColor=none;align=center;verticalAlign=middle;whiteSpace=wrap;rounded=0;fontSize=14;rotation=0;" parent="1" vertex="1">
          <mxGeometry x="870" y="1650" width="60" height="30" as="geometry" />
        </mxCell>
        <mxCell id="lPIwgzD2hlyKlDtllV1P-109" value="&amp;lt;in&amp;gt;" style="text;html=1;strokeColor=none;fillColor=none;align=center;verticalAlign=middle;whiteSpace=wrap;rounded=0;fontSize=14;rotation=0;" parent="1" vertex="1">
          <mxGeometry x="860" y="1570" width="60" height="30" as="geometry" />
        </mxCell>
        <mxCell id="lPIwgzD2hlyKlDtllV1P-110" value="&amp;lt;in&amp;gt;" style="text;html=1;strokeColor=none;fillColor=none;align=center;verticalAlign=middle;whiteSpace=wrap;rounded=0;fontSize=14;rotation=0;" parent="1" vertex="1">
          <mxGeometry x="552.5" y="1580" width="60" height="30" as="geometry" />
        </mxCell>
        <mxCell id="lPIwgzD2hlyKlDtllV1P-111" value="&amp;lt;in&amp;gt;" style="text;html=1;strokeColor=none;fillColor=none;align=center;verticalAlign=middle;whiteSpace=wrap;rounded=0;fontSize=14;rotation=-90;" parent="1" vertex="1">
          <mxGeometry x="220" y="1520" width="60" height="30" as="geometry" />
        </mxCell>
        <mxCell id="lPIwgzD2hlyKlDtllV1P-113" value="&amp;lt;in&amp;gt;" style="text;html=1;strokeColor=none;fillColor=none;align=center;verticalAlign=middle;whiteSpace=wrap;rounded=0;fontSize=14;rotation=0;" parent="1" vertex="1">
          <mxGeometry x="1490" y="1230" width="60" height="30" as="geometry" />
        </mxCell>
        <mxCell id="lPIwgzD2hlyKlDtllV1P-114" value="&amp;lt;in&amp;gt;" style="text;html=1;strokeColor=none;fillColor=none;align=center;verticalAlign=middle;whiteSpace=wrap;rounded=0;fontSize=14;rotation=0;" parent="1" vertex="1">
          <mxGeometry x="1230" y="1300" width="60" height="30" as="geometry" />
        </mxCell>
      </root>
    </mxGraphModel>
  </diagram>
</mxfile>
